<?xml version="1.0" standalone="no"?>
<!DOCTYPE svg PUBLIC "-//W3C//DTD SVG 20010904//EN"
 "http://www.w3.org/TR/2001/REC-SVG-20010904/DTD/svg10.dtd">
<svg version="1.0" xmlns="http://www.w3.org/2000/svg"
 width="2000.000000pt" height="2000.000000pt" viewBox="0 0 2000.000000 2000.000000"
 preserveAspectRatio="xMidYMid meet">

<g transform="translate(0.000000,2000.000000) scale(0.100000,-0.100000)"
fill="#000000" stroke="none">
<path d="M6922 14733 l3 -728 3645 -5 3645 -5 3 -3637 2 -3638 725 0 725 0 -2
4368 -3 4367 -4373 3 -4372 2 2 -727z"/>
<path d="M4735 13258 c-3 -7 -4 -1973 -3 -4368 l3 -4355 4364 -3 c3220 -1
4367 1 4377 9 12 10 14 713 12 4368 l-3 4356 -4373 3 c-3493 2 -4374 0 -4377
-10z"/>
</g>
</svg>
